<svg width="115" height="35" viewBox="0 0 115 35" fill="none" xmlns="http://www.w3.org/2000/svg">
<path d="M49.1084 9.884C49.0364 10.802 48.9824 11.684 48.9464 12.53C48.9284 13.376 48.9194 14.024 48.9194 14.474C48.9194 14.87 48.9284 15.248 48.9464 15.608C48.9644 15.968 48.9824 16.274 49.0004 16.526H48.3794C48.0914 15.014 47.7224 13.817 47.2724 12.935C46.8404 12.053 46.3184 11.432 45.7064 11.072C45.0944 10.694 44.3744 10.505 43.5464 10.505H42.9254V25.922C42.9254 26.642 42.9974 27.182 43.1414 27.542C43.3034 27.902 43.5914 28.145 44.0054 28.271C44.4194 28.379 45.0224 28.442 45.8144 28.46V29C45.2564 28.982 44.5094 28.964 43.5734 28.946C42.6554 28.928 41.6924 28.919 40.6844 28.919C39.6944 28.919 38.7584 28.928 37.8764 28.946C36.9944 28.964 36.2834 28.982 35.7434 29V28.46C36.5534 28.442 37.1654 28.379 37.5794 28.271C37.9934 28.145 38.2724 27.902 38.4164 27.542C38.5604 27.182 38.6324 26.642 38.6324 25.922V10.505H38.0384C37.2104 10.505 36.4904 10.694 35.8784 11.072C35.2664 11.432 34.7444 12.053 34.3124 12.935C33.8804 13.799 33.5024 14.996 33.1784 16.526H32.5574C32.5934 16.274 32.6114 15.968 32.6114 15.608C32.6294 15.248 32.6384 14.87 32.6384 14.474C32.6384 14.024 32.6204 13.376 32.5844 12.53C32.5664 11.684 32.5214 10.802 32.4494 9.884C33.2774 9.902 34.1774 9.92 35.1494 9.938C36.1394 9.956 37.1294 9.965 38.1194 9.965C39.1094 9.965 40.0004 9.965 40.7924 9.965C41.6024 9.965 42.4934 9.965 43.4654 9.965C44.4554 9.965 45.4454 9.956 46.4354 9.938C47.4254 9.92 48.3164 9.902 49.1084 9.884ZM53.498 29.189C52.688 29.189 52.013 29.036 51.473 28.73C50.933 28.424 50.537 28.019 50.285 27.515C50.033 26.993 49.907 26.426 49.907 25.814C49.907 25.04 50.078 24.41 50.42 23.924C50.78 23.438 51.239 23.042 51.797 22.736C52.355 22.43 52.94 22.178 53.552 21.98C54.182 21.782 54.776 21.593 55.334 21.413C55.91 21.215 56.369 20.99 56.711 20.738C57.071 20.468 57.251 20.126 57.251 19.712V17.606C57.251 17.138 57.17 16.724 57.008 16.364C56.864 15.986 56.63 15.698 56.306 15.5C56 15.302 55.595 15.203 55.091 15.203C54.731 15.203 54.371 15.257 54.011 15.365C53.651 15.455 53.354 15.617 53.12 15.851C53.624 16.031 54.011 16.31 54.281 16.688C54.569 17.048 54.713 17.462 54.713 17.93C54.713 18.542 54.497 19.028 54.065 19.388C53.651 19.748 53.156 19.928 52.58 19.928C51.932 19.928 51.437 19.73 51.095 19.334C50.771 18.92 50.609 18.425 50.609 17.849C50.609 17.327 50.735 16.895 50.987 16.553C51.257 16.211 51.626 15.887 52.094 15.581C52.598 15.293 53.201 15.068 53.903 14.906C54.623 14.744 55.397 14.663 56.225 14.663C57.053 14.663 57.8 14.753 58.466 14.933C59.132 15.095 59.69 15.401 60.14 15.851C60.554 16.265 60.824 16.778 60.95 17.39C61.076 17.984 61.139 18.74 61.139 19.658V27.002C61.139 27.452 61.184 27.767 61.274 27.947C61.364 28.109 61.517 28.19 61.733 28.19C61.895 28.19 62.048 28.145 62.192 28.055C62.354 27.965 62.525 27.857 62.705 27.731L62.975 28.19C62.597 28.514 62.156 28.766 61.652 28.946C61.166 29.108 60.617 29.189 60.005 29.189C59.339 29.189 58.808 29.099 58.412 28.919C58.016 28.721 57.728 28.46 57.548 28.136C57.386 27.812 57.305 27.434 57.305 27.002C56.873 27.686 56.351 28.226 55.739 28.622C55.127 29 54.38 29.189 53.498 29.189ZM55.415 27.461C55.775 27.461 56.099 27.38 56.387 27.218C56.693 27.038 56.981 26.75 57.251 26.354V20.819C57.089 21.089 56.864 21.332 56.576 21.548C56.288 21.764 55.982 21.989 55.658 22.223C55.334 22.439 55.019 22.682 54.713 22.952C54.425 23.222 54.191 23.555 54.011 23.951C53.831 24.347 53.741 24.824 53.741 25.382C53.741 26.084 53.894 26.606 54.2 26.948C54.506 27.29 54.911 27.461 55.415 27.461ZM73.0346 14.663C73.6106 14.663 74.0786 14.789 74.4386 15.041C74.7986 15.275 75.0596 15.581 75.2216 15.959C75.4016 16.337 75.4916 16.733 75.4916 17.147C75.4916 17.813 75.2936 18.362 74.8976 18.794C74.5196 19.208 74.0156 19.415 73.3856 19.415C72.7556 19.415 72.2606 19.262 71.9006 18.956C71.5586 18.632 71.3876 18.209 71.3876 17.687C71.3876 17.183 71.4956 16.769 71.7116 16.445C71.9456 16.103 72.2336 15.815 72.5756 15.581C72.3236 15.509 72.0716 15.518 71.8196 15.608C71.4776 15.662 71.1536 15.806 70.8476 16.04C70.5416 16.256 70.2806 16.535 70.0646 16.877C69.8486 17.201 69.6776 17.561 69.5516 17.957C69.4256 18.335 69.3626 18.704 69.3626 19.064V26.219C69.3626 27.083 69.5696 27.668 69.9836 27.974C70.4156 28.28 71.0546 28.433 71.9006 28.433V29C71.4866 28.982 70.8836 28.964 70.0916 28.946C69.2996 28.91 68.4716 28.892 67.6076 28.892C66.8876 28.892 66.1586 28.91 65.4206 28.946C64.6826 28.964 64.1246 28.982 63.7466 29V28.433C64.3766 28.433 64.8176 28.298 65.0696 28.028C65.3396 27.758 65.4746 27.245 65.4746 26.489V17.984C65.4746 17.174 65.3486 16.58 65.0966 16.202C64.8626 15.806 64.4126 15.608 63.7466 15.608V15.041C64.3226 15.095 64.8806 15.122 65.4206 15.122C66.1766 15.122 66.8786 15.095 67.5266 15.041C68.1926 14.969 68.8046 14.87 69.3626 14.744V17.255C69.5786 16.769 69.8666 16.328 70.2266 15.932C70.5866 15.536 71.0006 15.23 71.4686 15.014C71.9366 14.78 72.4586 14.663 73.0346 14.663ZM81.5881 34.076C80.4721 34.076 79.4731 33.977 78.5911 33.779C77.7271 33.599 77.0431 33.311 76.5391 32.915C76.0531 32.537 75.8101 32.069 75.8101 31.511C75.8101 30.953 76.0621 30.449 76.5661 29.999C77.0701 29.567 77.8171 29.225 78.8071 28.973L79.0501 29.405C78.7081 29.675 78.4561 29.963 78.2941 30.269C78.1501 30.593 78.0781 30.926 78.0781 31.268C78.0781 32.024 78.4201 32.6 79.1041 32.996C79.8061 33.41 80.7511 33.617 81.9391 33.617C82.7491 33.617 83.4691 33.509 84.0991 33.293C84.7471 33.077 85.2511 32.753 85.6111 32.321C85.9891 31.889 86.1781 31.358 86.1781 30.728C86.1781 30.188 85.9801 29.729 85.5841 29.351C85.1881 28.991 84.3961 28.811 83.2081 28.811H81.5341C80.7961 28.811 80.1481 28.73 79.5901 28.568C79.0501 28.406 78.6271 28.154 78.3211 27.812C78.0151 27.452 77.8621 27.002 77.8621 26.462C77.8621 25.706 78.1591 25.04 78.7531 24.464C79.3471 23.888 80.2291 23.348 81.3991 22.844L81.6691 23.06C81.3271 23.276 81.0031 23.51 80.6971 23.762C80.4091 23.996 80.2651 24.302 80.2651 24.68C80.2651 25.256 80.6251 25.544 81.3451 25.544H84.2881C85.2781 25.544 86.1601 25.661 86.9341 25.895C87.7261 26.129 88.3471 26.516 88.7971 27.056C89.2651 27.578 89.4991 28.262 89.4991 29.108C89.4991 29.99 89.2111 30.809 88.6351 31.565C88.0771 32.321 87.2131 32.924 86.0431 33.374C84.8731 33.842 83.3881 34.076 81.5881 34.076ZM81.8581 23.249C80.8321 23.249 79.9141 23.096 79.1041 22.79C78.2941 22.484 77.6551 22.016 77.1871 21.386C76.7191 20.756 76.4851 19.946 76.4851 18.956C76.4851 17.966 76.7191 17.156 77.1871 16.526C77.6551 15.878 78.2941 15.41 79.1041 15.122C79.9141 14.816 80.8321 14.663 81.8581 14.663C82.8841 14.663 83.8021 14.816 84.6121 15.122C85.4221 15.41 86.0611 15.878 86.5291 16.526C86.9971 17.156 87.2311 17.966 87.2311 18.956C87.2311 19.946 86.9971 20.756 86.5291 21.386C86.0611 22.016 85.4221 22.484 84.6121 22.79C83.8021 23.096 82.8841 23.249 81.8581 23.249ZM81.8581 22.763C82.3441 22.763 82.7221 22.493 82.9921 21.953C83.2621 21.395 83.3971 20.396 83.3971 18.956C83.3971 17.516 83.2621 16.526 82.9921 15.986C82.7221 15.428 82.3441 15.149 81.8581 15.149C81.3901 15.149 81.0121 15.428 80.7241 15.986C80.4541 16.526 80.3191 17.516 80.3191 18.956C80.3191 20.396 80.4541 21.395 80.7241 21.953C81.0121 22.493 81.3901 22.763 81.8581 22.763ZM86.0701 16.985L85.5301 16.796C85.8001 16.094 86.2321 15.509 86.8261 15.041C87.4381 14.573 88.0951 14.339 88.7971 14.339C89.3731 14.339 89.8051 14.501 90.0931 14.825C90.3991 15.131 90.5521 15.536 90.5521 16.04C90.5521 16.58 90.4081 16.985 90.1201 17.255C89.8321 17.507 89.5081 17.633 89.1481 17.633C88.8421 17.633 88.5541 17.525 88.2841 17.309C88.0321 17.093 87.8881 16.769 87.8521 16.337C87.8161 15.887 87.9691 15.311 88.3111 14.609L88.5001 14.771C87.8161 15.023 87.3031 15.32 86.9611 15.662C86.6191 15.986 86.3221 16.427 86.0701 16.985ZM97.8181 14.663C99.4021 14.663 100.644 15.131 101.544 16.067C102.444 17.003 102.894 18.533 102.894 20.657H94.0111L93.9571 20.144H99.4921C99.5101 19.262 99.4561 18.452 99.3301 17.714C99.2041 16.958 99.0061 16.355 98.7361 15.905C98.4661 15.455 98.1061 15.23 97.6561 15.23C97.0261 15.23 96.4861 15.626 96.0361 16.418C95.6041 17.21 95.3431 18.524 95.2531 20.36L95.3341 20.522C95.3161 20.738 95.2981 20.963 95.2801 21.197C95.2801 21.431 95.2801 21.674 95.2801 21.926C95.2801 23.168 95.4511 24.176 95.7931 24.95C96.1531 25.724 96.6031 26.291 97.1431 26.651C97.6831 26.993 98.2321 27.164 98.7901 27.164C99.1681 27.164 99.5551 27.11 99.9511 27.002C100.365 26.876 100.779 26.66 101.193 26.354C101.607 26.03 101.994 25.58 102.354 25.004L102.84 25.166C102.624 25.85 102.282 26.516 101.814 27.164C101.346 27.812 100.752 28.343 100.032 28.757C99.3121 29.171 98.4481 29.378 97.4401 29.378C96.2161 29.378 95.1361 29.117 94.2001 28.595C93.2641 28.073 92.5261 27.281 91.9861 26.219C91.4641 25.157 91.2031 23.807 91.2031 22.169C91.2031 20.495 91.4821 19.1 92.0401 17.984C92.6161 16.868 93.3991 16.04 94.3891 15.5C95.3971 14.942 96.5401 14.663 97.8181 14.663ZM109.939 10.613V15.041H113.125V15.581H109.939V26.489C109.939 27.029 110.038 27.416 110.236 27.65C110.434 27.866 110.731 27.974 111.127 27.974C111.451 27.974 111.775 27.857 112.099 27.623C112.423 27.371 112.711 26.948 112.963 26.354L113.422 26.597C113.134 27.407 112.693 28.073 112.099 28.595C111.523 29.117 110.731 29.378 109.723 29.378C109.129 29.378 108.607 29.297 108.157 29.135C107.707 28.991 107.329 28.766 107.023 28.46C106.627 28.064 106.366 27.578 106.24 27.002C106.114 26.408 106.051 25.643 106.051 24.707V15.581H103.783V15.041H106.051V11.477C106.807 11.477 107.5 11.414 108.13 11.288C108.778 11.144 109.381 10.919 109.939 10.613Z" fill="#C9B7AD"/>
<rect x="0.5" y="5" width="26.2301" height="26" rx="5" fill="#C9B7AD"/>
<ellipse cx="13.6146" cy="18" rx="5.04425" ry="5" fill="#C18F76"/>
<path d="M13.6147 12.4V11M13.6147 25V23.6M19.2642 18H20.6766M6.55273 18H7.96512M13.6147 12.96C12.609 12.96 11.626 13.2556 10.7898 13.8094C9.95367 14.3632 9.30196 15.1503 8.91712 16.0713C8.53228 16.9922 8.43159 18.0056 8.62778 18.9833C8.82397 19.9609 9.30823 20.859 10.0193 21.5638C10.7304 22.2687 11.6364 22.7487 12.6227 22.9432C13.609 23.1376 14.6314 23.0378 15.5605 22.6564C16.4896 22.2749 17.2837 21.6289 17.8424 20.8001C18.4011 19.9712 18.6993 18.9968 18.6993 18C18.6993 16.6633 18.1636 15.3814 17.21 14.4362C16.2565 13.491 14.9632 12.96 13.6147 12.96Z" stroke="white" stroke-width="2" stroke-linecap="square" stroke-linejoin="round"/>
</svg>
