<svg width="109" height="39" viewBox="0 0 109 39" fill="none" xmlns="http://www.w3.org/2000/svg">
<path d="M9.83 31.27C8.69 31.27 7.55 31.23 6.41 31.15C5.29 31.09 4.12 30.93 2.9 30.67V10.51C3.86 10.33 4.91 10.2 6.05 10.12C7.19 10.02 8.25 9.97 9.23 9.97C10.55 9.97 11.76 10.07 12.86 10.27C13.98 10.45 14.94 10.77 15.74 11.23C16.54 11.69 17.16 12.3 17.6 13.06C18.06 13.8 18.29 14.72 18.29 15.82C18.29 17.48 17.49 18.79 15.89 19.75C17.21 20.25 18.11 20.93 18.59 21.79C19.07 22.65 19.31 23.62 19.31 24.7C19.31 26.88 18.51 28.52 16.91 29.62C15.33 30.72 12.97 31.27 9.83 31.27ZM7.46 21.94V27.31C7.8 27.35 8.17 27.38 8.57 27.4C8.97 27.42 9.41 27.43 9.89 27.43C11.29 27.43 12.42 27.23 13.28 26.83C14.14 26.43 14.57 25.69 14.57 24.61C14.57 23.65 14.21 22.97 13.49 22.57C12.77 22.15 11.74 21.94 10.4 21.94H7.46ZM7.46 18.37H9.74C11.18 18.37 12.21 18.19 12.83 17.83C13.45 17.45 13.76 16.85 13.76 16.03C13.76 15.19 13.44 14.6 12.8 14.26C12.16 13.92 11.22 13.75 9.98 13.75C9.58 13.75 9.15 13.76 8.69 13.78C8.23 13.78 7.82 13.8 7.46 13.84V18.37ZM27.2263 31H22.7563V15.22H27.2263V31ZM27.6463 10.66C27.6463 11.48 27.3763 12.13 26.8363 12.61C26.3163 13.07 25.6963 13.3 24.9763 13.3C24.2563 13.3 23.6263 13.07 23.0863 12.61C22.5663 12.13 22.3063 11.48 22.3063 10.66C22.3063 9.84 22.5663 9.2 23.0863 8.74C23.6263 8.26 24.2563 8.02 24.9763 8.02C25.6963 8.02 26.3163 8.26 26.8363 8.74C27.3763 9.2 27.6463 9.84 27.6463 10.66ZM31.2781 11.29L35.7481 10.57V15.22H41.1181V18.94H35.7481V24.49C35.7481 25.43 35.9081 26.18 36.2281 26.74C36.5681 27.3 37.2381 27.58 38.2381 27.58C38.7181 27.58 39.2081 27.54 39.7081 27.46C40.2281 27.36 40.6981 27.23 41.1181 27.07L41.7481 30.55C41.2081 30.77 40.6081 30.96 39.9481 31.12C39.2881 31.28 38.4781 31.36 37.5181 31.36C36.2981 31.36 35.2881 31.2 34.4881 30.88C33.6881 30.54 33.0481 30.08 32.5681 29.5C32.0881 28.9 31.7481 28.18 31.5481 27.34C31.3681 26.5 31.2781 25.57 31.2781 24.55V11.29Z" fill="#C9B7AD"/>
<path d="M82.63 27.88C83.07 27.88 83.49 27.87 83.89 27.85C84.29 27.83 84.61 27.8 84.85 27.76V24.37C84.67 24.33 84.4 24.29 84.04 24.25C83.68 24.21 83.35 24.19 83.05 24.19C82.63 24.19 82.23 24.22 81.85 24.28C81.49 24.32 81.17 24.41 80.89 24.55C80.61 24.69 80.39 24.88 80.23 25.12C80.07 25.36 79.99 25.66 79.99 26.02C79.99 26.72 80.22 27.21 80.68 27.49C81.16 27.75 81.81 27.88 82.63 27.88ZM82.27 14.8C83.59 14.8 84.69 14.95 85.57 15.25C86.45 15.55 87.15 15.98 87.67 16.54C88.21 17.1 88.59 17.78 88.81 18.58C89.03 19.38 89.14 20.27 89.14 21.25V30.55C88.5 30.69 87.61 30.85 86.47 31.03C85.33 31.23 83.95 31.33 82.33 31.33C81.31 31.33 80.38 31.24 79.54 31.06C78.72 30.88 78.01 30.59 77.41 30.19C76.81 29.77 76.35 29.23 76.03 28.57C75.71 27.91 75.55 27.1 75.55 26.14C75.55 25.22 75.73 24.44 76.09 23.8C76.47 23.16 76.97 22.65 77.59 22.27C78.21 21.89 78.92 21.62 79.72 21.46C80.52 21.28 81.35 21.19 82.21 21.19C82.79 21.19 83.3 21.22 83.74 21.28C84.2 21.32 84.57 21.38 84.85 21.46V21.04C84.85 20.28 84.62 19.67 84.16 19.21C83.7 18.75 82.9 18.52 81.76 18.52C81 18.52 80.25 18.58 79.51 18.7C78.77 18.8 78.13 18.95 77.59 19.15L77.02 15.55C77.28 15.47 77.6 15.39 77.98 15.31C78.38 15.21 78.81 15.13 79.27 15.07C79.73 14.99 80.21 14.93 80.71 14.89C81.23 14.83 81.75 14.8 82.27 14.8ZM99.452 20.02L102.572 15.22H107.192L101.792 22.81C102.992 24.31 104.082 25.77 105.062 27.19C106.042 28.61 106.822 29.88 107.402 31H102.602C102.442 30.7 102.242 30.33 102.002 29.89C101.762 29.43 101.492 28.96 101.192 28.48C100.892 27.98 100.572 27.49 100.232 27.01C99.912 26.51 99.592 26.06 99.272 25.66C98.972 26.04 98.662 26.46 98.342 26.92C98.042 27.38 97.752 27.85 97.472 28.33C97.192 28.79 96.912 29.25 96.632 29.71C96.372 30.17 96.142 30.6 95.942 31H91.382C91.622 30.5 91.952 29.91 92.372 29.23C92.792 28.55 93.242 27.85 93.722 27.13C94.222 26.39 94.742 25.66 95.282 24.94C95.822 24.2 96.352 23.51 96.872 22.87C95.972 21.61 95.072 20.34 94.172 19.06C93.272 17.76 92.382 16.48 91.502 15.22H96.332L99.452 20.02Z" fill="#C9B7AD"/>
<path d="M53 11L55.9357 11.6118L58.584 13.3873L60.6857 16.1527L62.035 19.6373L62.5 23.5L62.035 27.3627L60.6857 30.8473L58.584 33.6127L55.9357 35.3882L53 36L50.0643 35.3882L47.416 33.6127L45.3143 30.8473L43.965 27.3627L43.5 23.5L43.965 19.6373L45.3143 16.1527L47.416 13.3873L50.0643 11.6118L53 11Z" fill="#C9B7AD"/>
<path d="M63 11L65.9357 11.6118L68.584 13.3873L70.6857 16.1527L72.035 19.6373L72.5 23.5L72.035 27.3627L70.6857 30.8473L68.584 33.6127L65.9357 35.3882L63 36L60.0643 35.3882L57.416 33.6127L55.3143 30.8473L53.965 27.3627L53.5 23.5L53.965 19.6373L55.3143 16.1527L57.416 13.3873L60.0643 11.6118L63 11Z" fill="#C18F76"/>
</svg>
