<svg width="147" height="36" viewBox="0 0 147 36" fill="none" xmlns="http://www.w3.org/2000/svg">
<path d="M55.13 27.5H50.513L42.791 15.809V27.5H38.174V8.546H42.791L50.513 20.291V8.546H55.13V27.5ZM65.3347 27.716C63.8587 27.716 62.5267 27.401 61.3387 26.771C60.1687 26.141 59.2417 25.241 58.5577 24.071C57.8917 22.901 57.5587 21.533 57.5587 19.967C57.5587 18.419 57.9007 17.06 58.5847 15.89C59.2687 14.702 60.2047 13.793 61.3927 13.163C62.5807 12.533 63.9127 12.218 65.3887 12.218C66.8647 12.218 68.1967 12.533 69.3847 13.163C70.5727 13.793 71.5087 14.702 72.1927 15.89C72.8767 17.06 73.2187 18.419 73.2187 19.967C73.2187 21.515 72.8677 22.883 72.1657 24.071C71.4817 25.241 70.5367 26.141 69.3307 26.771C68.1427 27.401 66.8107 27.716 65.3347 27.716ZM65.3347 23.72C66.2167 23.72 66.9637 23.396 67.5757 22.748C68.2057 22.1 68.5207 21.173 68.5207 19.967C68.5207 18.761 68.2147 17.834 67.6027 17.186C67.0087 16.538 66.2707 16.214 65.3887 16.214C64.4887 16.214 63.7417 16.538 63.1477 17.186C62.5537 17.816 62.2567 18.743 62.2567 19.967C62.2567 21.173 62.5447 22.1 63.1207 22.748C63.7147 23.396 64.4527 23.72 65.3347 23.72ZM74.7231 12.083V7.79H82.2021V27.5H77.3961V12.083H74.7231ZM90.7582 17.996C90.7582 16.124 91.1632 14.459 91.9732 13.001C92.7832 11.525 93.9082 10.382 95.3482 9.572C96.8062 8.744 98.4532 8.33 100.289 8.33C102.539 8.33 104.465 8.924 106.067 10.112C107.669 11.3 108.74 12.92 109.28 14.972H104.204C103.826 14.18 103.286 13.577 102.584 13.163C101.9 12.749 101.117 12.542 100.235 12.542C98.8132 12.542 97.6612 13.037 96.7792 14.027C95.8972 15.017 95.4562 16.34 95.4562 17.996C95.4562 19.652 95.8972 20.975 96.7792 21.965C97.6612 22.955 98.8132 23.45 100.235 23.45C101.117 23.45 101.9 23.243 102.584 22.829C103.286 22.415 103.826 21.812 104.204 21.02H109.28C108.74 23.072 107.669 24.692 106.067 25.88C104.465 27.05 102.539 27.635 100.289 27.635C98.4532 27.635 96.8062 27.23 95.3482 26.42C93.9082 25.592 92.7832 24.449 91.9732 22.991C91.1632 21.533 90.7582 19.868 90.7582 17.996ZM114.43 10.868C113.62 10.868 112.954 10.634 112.432 10.166C111.928 9.68 111.676 9.086 111.676 8.384C111.676 7.664 111.928 7.07 112.432 6.602C112.954 6.116 113.62 5.873 114.43 5.873C115.222 5.873 115.87 6.116 116.374 6.602C116.896 7.07 117.157 7.664 117.157 8.384C117.157 9.086 116.896 9.68 116.374 10.166C115.87 10.634 115.222 10.868 114.43 10.868ZM116.725 12.434V27.5H112.108V12.434H116.725ZM128.467 23.585V27.5H126.118C124.444 27.5 123.139 27.095 122.203 26.285C121.267 25.457 120.799 24.116 120.799 22.262V16.268H118.963V12.434H120.799V8.762H125.416V12.434H128.44V16.268H125.416V22.316C125.416 22.766 125.524 23.09 125.74 23.288C125.956 23.486 126.316 23.585 126.82 23.585H128.467ZM146.429 12.434L136.979 34.655H132.011L135.467 26.987L129.338 12.434H134.495L137.978 21.857L141.434 12.434H146.429Z" fill="#C9B7AD"/>
<rect x="0.5" y="3.5" width="9" height="9" fill="#AD7B62"/>
<rect x="0.5" y="12.5" width="9" height="10" fill="#C9B7AD"/>
<rect x="0.5" y="22.5" width="9" height="9" fill="#B59381"/>
<rect x="9.5" y="3.5" width="10" height="9" fill="#C9B7AD"/>
<rect x="9.5" y="22.5" width="10" height="9" fill="#C9B7AD"/>
<rect x="19.5" y="3.5" width="9" height="9" fill="#B59381"/>
<rect x="19.5" y="12.5" width="9" height="10" fill="#C9B7AD"/>
<rect x="19.5" y="22.5" width="9" height="9" fill="#AD7B62"/>
<rect x="5.5" y="8.5" width="18" height="18" fill="#F5F1EF"/>
</svg>
